<?xml version="1.0" encoding="UTF-8"?>
<svg id="Layer_1" data-name="Layer 1" xmlns="http://www.w3.org/2000/svg" version="1.1" viewBox="0 0 24 24">
  <defs>
    <style>
      .cls-1 {
        fill: #fff;
        stroke-width: 0px;
      }
    </style>
  </defs>
  <path class="cls-1" d="M14.8,16.2l-2.8,2.8c-1,1-2.2,1.5-3.5,1.5s-2.6-.5-3.5-1.5-1.5-2.2-1.5-3.5.5-2.6,1.5-3.5l2.8-2.8,1.4,1.4-2.8,2.8c-.6.6-.9,1.3-.9,2.1s.3,1.5.9,2.1,1.3.9,2.1.9,1.5-.3,2.1-.9l2.8-2.8,1.4,1.4ZM9.9,15.5l-1.4-1.4,5.7-5.7,1.4,1.4-5.7,5.7ZM16.2,14.8l-1.4-1.4,2.8-2.8c.6-.6.9-1.3.9-2.1s-.3-1.5-.9-2.1-1.3-.9-2.1-.9-1.5.3-2.1.9l-2.8,2.8-1.4-1.4,2.8-2.8c1-1,2.2-1.5,3.5-1.5s2.6.5,3.5,1.5,1.5,2.2,1.5,3.5-.5,2.6-1.5,3.5l-2.8,2.8Z"/>
</svg>