<?xml version="1.0" encoding="UTF-8"?><svg id="Layer_2" xmlns="http://www.w3.org/2000/svg" viewBox="0 0 73.86 76.95"><defs><style>.cls-1{fill:#fff;stroke-width:0px;}</style></defs><g id="Layer_1-2"><g id="Trophy"><path class="cls-1" d="M32.43,57.32c1.31.31,2.64.49,3.98.56v8.9h-3.98v-9.46ZM42.56,57.3c-1.39.33-2.76.53-4.13.59v8.88h4.13v-9.47ZM30.39,56.75c-.91-.29-1.81-.63-2.71-1.03v11.06h2.71v-10.03ZM44.59,56.73v10.05h2.56v-11.06c-.86.39-1.71.73-2.56,1.01ZM54.01,75.51l-2.24-4.6c-.17-.34-.52-.56-.9-.56h-26.91c-.38,0-.73.22-.9.56l-2.24,4.6c-.32.67.16,1.44.9,1.44h31.39c.74,0,1.22-.78.9-1.44ZM25.24,49.8c-.18.03-.35.05-.52.07,3.6,2.38,7.91,3.77,12.55,3.77,10.37,0,19.11-6.93,21.87-16.4-10.35,6.81-21.8,10.56-33.91,12.56ZM37.28,8.08c-12.58,0-22.79,10.2-22.79,22.79,0,4.59,1.36,8.87,3.7,12.45,2.08-.22,4.12-.71,5.55-1.02,6.07-1.32,12.29-4.38,15.02-6.37l-1.49-1.09-6.11,4.44,2.33-7.18-6.11-4.44h7.55l2.33-7.18,2.33,7.18h7.55l-6.11,4.44.67,2.06c3.83-2.41,7.44-5.12,10.68-7.96,1.92-1.79,3.87-3.66,5.17-5.67-3.77-7.38-11.44-12.44-20.3-12.44ZM68.02,15.64c-2.89-5.26-9.15-5.68-14.78-5.03,2.17,1.71,4.07,3.78,5.62,6.16,1.51-.11,2.88-.06,3.39,1.55.64,3.36-5.06,8.44-7.64,10.65-8.75,7.11-19.4,12.71-30.45,15.37-13.96,2.99-18.55-1.16-12.18-8.56-.27-1.41-.43-2.85-.46-4.3-10.83,11.27-4.97,19.67,13.32,16.29,12.03-2.3,23.46-6.91,33.43-14.17,5.04-4,12.62-10.55,9.76-17.94ZM3.35,7.08l-3.35,1.39,3.53.85.29,3.62,1.9-3.1,3.53.85-2.36-2.76,1.9-3.1-3.35,1.39-2.36-2.76.29,3.62ZM19.25,2.3l-2.48-.19,1.89,1.61-.95,2.3,2.12-1.3,1.89,1.61-.58-2.42,2.12-1.3-2.48-.19-.58-2.42-.95,2.3ZM63.58,47.56l-2.79-.22,2.13,1.81-1.07,2.58,2.38-1.46,2.13,1.81-.66-2.72,2.38-1.46-2.79-.22-.66-2.72-1.07,2.58ZM70.41,39.8l-2.13.69,2.13.69v2.24s1.32-1.82,1.32-1.82l2.13.69-1.32-1.82,1.32-1.82-2.13.69-1.32-1.82v2.24Z"/></g></g></svg>