<?xml version="1.0" encoding="UTF-8"?>
<svg id="Layer_2" data-name="Layer 2" xmlns="http://www.w3.org/2000/svg" version="1.1" viewBox="0 0 73.9 76.9">
  <defs>
    <style>
      .cls-1 {
        fill: #a281e2;
        stroke-width: 0px;
      }
    </style>
  </defs>
  <g id="Layer_1-2" data-name="Layer 1-2">
    <g id="Trophy">
      <path class="cls-1" d="M32.4,57.3c1.3.3,2.6.5,4,.6v8.9h-4v-9.5ZM42.6,57.3c-1.4.3-2.8.5-4.1.6v8.9h4.1s0-9.5,0-9.5ZM30.4,56.8c-.9-.3-1.8-.6-2.7-1v11.1h2.7v-10ZM44.6,56.7v10h2.6v-11.1c-.9.4-1.7.7-2.6,1ZM54,75.5l-2.2-4.6c-.2-.3-.5-.6-.9-.6h-26.9c-.4,0-.7.2-.9.6l-2.2,4.6c-.3.7.2,1.4.9,1.4h31.4c.7,0,1.2-.8.9-1.4ZM25.2,49.8c-.2,0-.4,0-.5,0,3.6,2.4,7.9,3.8,12.6,3.8,10.4,0,19.1-6.9,21.9-16.4-10.3,6.8-21.8,10.6-33.9,12.6h0ZM37.3,8.1c-12.6,0-22.8,10.2-22.8,22.8s1.4,8.9,3.7,12.4c2.1-.2,4.1-.7,5.5-1,6.1-1.3,12.3-4.4,15-6.4l-1.5-1.1-6.1,4.4,2.3-7.2-6.1-4.4h7.5l2.3-7.2,2.3,7.2h7.5l-6.1,4.4.7,2.1c3.8-2.4,7.4-5.1,10.7-8,1.9-1.8,3.9-3.7,5.2-5.7-3.8-7.4-11.4-12.4-20.3-12.4h0ZM68,15.6c-2.9-5.3-9.2-5.7-14.8-5,2.2,1.7,4.1,3.8,5.6,6.2,1.5-.1,2.9,0,3.4,1.5.6,3.4-5.1,8.4-7.6,10.6-8.8,7.1-19.4,12.7-30.5,15.4-14,3-18.5-1.2-12.2-8.6-.3-1.4-.4-2.8-.5-4.3-10.8,11.3-5,19.7,13.3,16.3,12-2.3,23.5-6.9,33.4-14.2,5-4,12.6-10.5,9.8-17.9h0ZM3.3,7.1l-3.3,1.4,3.5.9.3,3.6,1.9-3.1,3.5.9-2.4-2.8,1.9-3.1-3.3,1.4-2.4-2.8.3,3.6h0ZM19.2,2.3l-2.5-.2,1.9,1.6-1,2.3,2.1-1.3,1.9,1.6-.6-2.4,2.1-1.3-2.5-.2L20.2,0s-1,2.3-.9,2.3ZM63.6,47.6l-2.8-.2,2.1,1.8-1.1,2.6,2.4-1.5,2.1,1.8-.7-2.7,2.4-1.5-2.8-.2-.7-2.7-1.1,2.6h0ZM70.4,39.8l-2.1.7,2.1.7v2.2l1.3-1.8,2.1.7-1.3-1.8,1.3-1.8-2.1.7-1.3-1.8v2.2h0Z"/>
    </g>
  </g>
</svg>